{"title":"Big.Brother.UK.S14.Daily.Show.Day.3.DSR.XviD","uid":8578730,"size":444823552,"categoryP":"video","categoryS":"tv_shows","magnet":"?xt=urn:btih:a4b6d99da8c12a1d3ac2ed8079eea036d71ab217&amp;dn=Big.Brother.UK.S14.Daily.Show.Day.3.DSR.XviD&amp;tr=udp%3A%2F%2Ftracker.openbittorrent.com%3A80&amp;tr=udp%3A%2F%2Fopen.demonii.com%3A1337&amp;tr=udp%3A%2F%2Ftracker.coppersurfer.tk%3A6969&amp;tr=udp%3A%2F%2Fexodus.desync.com%3A6969","seeders":1,"leechers":0,"uploader":"upsdave","files":-1,"time":1371356912,"description":"Format                                   : AVI\nFormat/Info                              : Audio Video Interleave\nFile size                                : 424 MiB\nDuration                                 : 44mn 22s\nOverall bit rate                         : 1 337 Kbps\n\nVideo\nID                                       : 0\nFormat                                   : MPEG-4 Visual\nFormat profile                           : Advanced Simple@L5\nFormat settings, BVOP                    : 2\nFormat settings, QPel                    : No\nFormat settings, GMC                     : No warppoints\nFormat settings, Matrix                  : Default (H.263)\nCodec ID                                 : XVID\nCodec ID/Hint                            : XviD\nDuration                                 : 44mn 22s\nBit rate                                 : 1 196 Kbps\nWidth                                    : 640 pixels\nHeight                                   : 368 pixels\nDisplay aspect ratio                     : 1.739\nFrame rate                               : 25.000 fps\nColor space                              : YUV\nChroma subsampling                       : 4:2:0\nBit depth                                : 8 bits\nScan type                                : Progressive\nCompression mode                         : Lossy\nBits/(Pixel*Frame)                       : 0.203\nStream size                              : 380 MiB (90%)\nWriting library                          : XviD 1.1.2 (UTC 2006-11-01)\n\nAudio\nID                                       : 1\nFormat                                   : MPEG Audio\nFormat version                           : Version 1\nFormat profile                           : Layer 3\nMode                                     : Joint stereo\nMode extension                           : MS Stereo\nCodec ID                                 : 55\nCodec ID/Hint                            : MP3\nDuration                                 : 44mn 22s\nBit rate mode                            : Constant\nBit rate                                 : 128 Kbps\nChannel(s)                               : 2 channels\nSampling rate                            : 44.1 KHz\nCompression mode                         : Lossy\nStream size                              : 40.6 MiB (10%)\nAlignment                                : Aligned on interleaves\nInterleave, duration                     : 26 ms (0.65 video frame)\nInterleave, preload duration             : 809 ms","torrent":{"xt":"urn:btih:a4b6d99da8c12a1d3ac2ed8079eea036d71ab217","amp;dn":"Big.Brother.UK.S14.Daily.Show.Day.3.DSR.XviD","amp;tr":["udp%3A%2F%2Ftracker.openbittorrent.com%3A80","udp%3A%2F%2Fopen.demonii.com%3A1337","udp%3A%2F%2Ftracker.coppersurfer.tk%3A6969","udp%3A%2F%2Fexodus.desync.com%3A6969"],"infoHash":"a4b6d99da8c12a1d3ac2ed8079eea036d71ab217","infoHashBuffer":{"type":"Buffer","data":[164,182,217,157,168,193,42,29,58,194,237,128,121,238,160,54,215,26,178,23]},"announce":[],"urlList":[]}}